<?xml version="1.0" encoding="utf-8"?>
<svg version="1.1" id="social_btn_elixir" xmlns="http://www.w3.org/2000/svg" xmlns:xlink="http://www.w3.org/1999/xlink" x="0px" y="0px" viewBox="0 0 40 40" style="enable-background:new 0 0 40 40;" xml:space="preserve">
  <style type="text/css">
    .color{fill:#CFD7DB;}
  </style>
  <title>Social Button Facebook</title>
  <path id="btn_facebook" class="color" d="M39.5,18.9c0.7,0.6,0.7,1.6,0,2.2L21.1,39.5C20.8,39.8,20.4,40,20,40s-0.8-0.2-1.1-0.5
	L0.5,21.1c-0.6-0.6-0.6-1.6,0-2.2L18.9,0.5C19.2,0.2,19.6,0,20,0s0.8,0.2,1.1,0.5L39.5,18.9z M24.7,10.8c-0.3,0-1.4-0.1-2.6-0.1
	c-2.6,0-4.4,1.6-4.4,4.5v2.5h-3v3.4h3v8.8h3.5v-8.8h2.9l0.5-3.4h-3.4v-2.2c0-1,0.3-1.7,1.7-1.7h1.8V10.8z"></path>
</svg>