<?xml version="1.0" encoding="utf-8"?>
<svg version="1.1" id="social_btn_twitter" xmlns="http://www.w3.org/2000/svg" xmlns:xlink="http://www.w3.org/1999/xlink" x="0px" y="0px" viewBox="0 0 40 40" style="enable-background:new 0 0 40 40;" xml:space="preserve">
	<style type="text/css">
		.color-marble{fill:#CFD7DB;}
	</style>
	<title>Social Button Twitter</title>
	<path id="btn_twitter" class="color-marble" d="M39.5,18.9c0.7,0.6,0.7,1.6,0,2.2L21.1,39.5C20.8,39.8,20.4,40,20,40c-0.4,0-0.8-0.2-1.1-0.5
		L0.5,21.1c-0.6-0.6-0.6-1.6,0-2.2L18.9,0.5C19.2,0.2,19.6,0,20,0c0.4,0,0.8,0.2,1.1,0.5L39.5,18.9z M29.3,14.2
		c-0.7,0.3-1.4,0.5-2.2,0.6c0.8-0.5,1.4-1.2,1.7-2.1c-0.7,0.4-1.6,0.8-2.4,0.9c-0.7-0.7-1.7-1.2-2.8-1.2c-2.1,0-3.8,1.7-3.8,3.8
		c0,0.3,0,0.6,0.1,0.9c-3.2-0.2-6-1.7-7.9-4c-0.3,0.6-0.5,1.2-0.5,1.9c0,1.3,0.7,2.5,1.7,3.2c-0.6,0-1.2-0.2-1.7-0.5v0
		c0,1.9,1.3,3.4,3.1,3.8c-0.3,0.1-0.7,0.1-1,0.1c-0.2,0-0.5,0-0.7-0.1c0.5,1.5,1.9,2.6,3.6,2.7c-1.3,1-3,1.6-4.7,1.6
		c-0.3,0-0.6,0-0.9,0c1.7,1.1,3.7,1.7,5.9,1.7c7,0,10.9-5.8,10.9-10.9c0-0.2,0-0.3,0-0.5C28.2,15.7,28.8,15,29.3,14.2z"></path>
</svg>