<?xml version="1.0" encoding="utf-8"?>
<svg version="1.1" id="ruby_elixir_conf_logo" xmlns="http://www.w3.org/2000/svg" xmlns:xlink="http://www.w3.org/1999/xlink" x="0px" y="0px" viewBox="0 0 320 284" style="enable-background:new 0 0 320 284;" xml:space="preserve">
	<style type="text/css">
		.color-midnight{fill:#3B4966;}
		.elixir{fill:url(#elixir_color);}
		.ruby{fill:url(#ruby_color);}
		.logo_frame{fill:url(#shape_frame_color);}
		.logo_ruby{fill:url(#shape_ruby_color);}
		.logo_elixir{fill:url(#shape_elixir_color);}
	</style>
	<title>Ruby Elixir Conf Logo</title>
	<path id="2018" transform="translate(59.789474, 177.008310)" class="color-midnight" d="M28.6,19.5c-0.8,0.8-1.8,1.4-2.8,1.9
	c-1,0.4-2.1,0.6-3.2,0.6c-1.1,0-2.2-0.2-3.2-0.6c-1-0.4-1.9-1-2.8-1.9l-2-2c-0.3-0.3-0.6-0.5-0.9-0.6c-0.3-0.2-0.7-0.2-1.1-0.2
	c-0.3,0-0.8,0.1-1.1,0.2c-0.3,0.1-0.7,0.3-0.9,0.6l-2,2l9.4,9.4l-4,4L0.5,19.5l6-6c0.8-0.8,1.8-1.4,2.8-1.9c1-0.4,2.1-0.6,3.2-0.6
	s2.2,0.2,3.2,0.6c1,0.4,1.9,1,2.8,1.9l2,2c0.3,0.3,0.6,0.5,0.9,0.6c0.3,0.1,0.7,0.2,1.1,0.2c0.3,0,0.8-0.1,1.1-0.3s0.7-0.3,0.9-0.7
	c0.3-0.3,0.5-0.6,0.6-0.9c0.2-0.3,0.2-0.7,0.2-1.1c0-0.3-0.1-0.7-0.2-1.1c-0.2-0.3-0.3-0.7-0.6-0.9l-7.2-7.2l4-4l7.2,7.2
	C29.4,8.1,30,9,30.4,10s0.6,2.1,0.6,3.2s-0.2,2.2-0.6,3.2C30.1,17.7,29.5,18.7,28.6,19.5z M42.9,41.8c-1.9,1.9-3.7,3.3-5.5,4.2
	c-1.8,0.9-3.4,1.3-4.9,1.4s-2.9-0.2-4.3-0.8c-1.3-0.6-2.5-1.5-3.6-2.6c-1.1-1.1-1.9-2.4-2.5-3.7c-0.6-1.3-0.8-2.8-0.8-4.3
	c0-1.5,0.5-3.2,1.3-4.9c0.9-1.8,2.3-3.5,4.1-5.4c1.9-1.9,3.7-3.3,5.5-4.2c1.7-0.9,3.4-1.3,4.9-1.4s2.9,0.2,4.3,0.8
	c1.3,0.6,2.5,1.4,3.7,2.6c1.1,1.1,1.9,2.4,2.5,3.7s0.8,2.8,0.8,4.3c-0.1,1.5-0.6,3.2-1.4,4.9C46.1,38.1,44.8,39.9,42.9,41.8z
	 M39.1,37.9c2.2-2.2,3.5-4.2,3.9-6.1c0.3-1.9-0.2-3.4-1.4-4.7c-1.3-1.3-2.9-1.8-4.6-1.4c-1.8,0.3-3.8,1.6-6.1,3.9
	c-2.2,2.2-3.5,4.2-3.9,6.1c-0.3,1.8,0.1,3.4,1.4,4.7c0.7,0.7,1.3,1.1,2.2,1.3c0.8,0.3,1.6,0.3,2.5,0.1s1.9-0.6,2.9-1.3
	C36.9,40,38,39.1,39.1,37.9z M41.2,60.1l-4-4l16-16l-2-2l4-4l6,6L41.2,60.1z M65.7,64.8H72c0.7,0,1.3-0.3,1.8-0.8
	c0.5-0.5,0.8-1.1,0.8-1.8V51.8c0-0.7-0.3-1.3-0.8-1.8c-0.5-0.5-1.1-0.8-1.8-0.8H61.5c-0.7,0-1.3,0.3-1.8,0.8
	c-0.5,0.5-0.8,1.1-0.8,1.8v6.3h-6.3c-0.7,0-1.3,0.3-1.8,0.8c-0.5,0.5-0.8,1.1-0.8,1.8v10.5c0,0.7,0.3,1.3,0.8,1.8
	c0.5,0.5,1.1,0.8,1.8,0.8h10.5c0.7,0,1.3-0.3,1.8-0.8c0.5-0.5,0.8-1.1,0.8-1.8V64.8z M63.6,53.9h6.3v6.3h-6.3V53.9z M61,62.7V69
	h-6.3v-6.3H61z"></path>
	<path id="conf" transform="translate(143.157895, 205.666799)" class="color-midnight" d="M29.9,63.9c-0.2,1.8-0.6,3.4-1.3,5
	c-0.8,1.6-1.7,3-2.9,4.2c-0.9,0.9-2,1.8-3.1,2.4c-1.1,0.7-2.3,1.1-3.5,1.4c-1.2,0.3-2.4,0.5-3.7,0.5s-2.5-0.2-3.7-0.5
	s-2.4-0.8-3.5-1.4C7,74.8,5.9,74,5,73.1s-1.8-2-2.4-3.1c-0.7-1.1-1.1-2.3-1.4-3.5c-0.3-1.2-0.5-2.4-0.5-3.7c0-1.3,0.2-2.5,0.5-3.7
	c0.3-1.2,0.8-2.4,1.4-3.5C3.3,54.4,4,53.3,5,52.3c1.3-1.3,2.6-2.2,4.2-3c1.6-0.8,3.2-1.2,5-1.3l1.3,5.6c-1.2-0.1-2.4,0.2-3.5,0.6
	c-1.2,0.4-2.1,1.1-3,2c-0.8,0.8-1.5,1.9-2,3c-0.4,1.1-0.7,2.3-0.7,3.4c0,1.2,0.3,2.3,0.7,3.4c0.4,1.1,1.1,2.1,1.9,3
	c0.8,0.8,1.9,1.5,2.9,1.9s2.2,0.7,3.4,0.7s2.3-0.3,3.4-0.7s2.1-1.1,2.9-2c0.8-0.8,1.5-1.9,2-3c0.4-1.2,0.7-2.4,0.6-3.5L29.9,63.9z
	 M40.2,42.5c1.1,1.1,1.9,2.4,2.5,3.7c0.6,1.3,0.8,2.8,0.8,4.1c0,1.4-0.3,2.8-0.8,4c-0.5,1.3-1.3,2.5-2.4,3.6c-1,1-2.3,1.9-3.5,2.4
	c-1.3,0.5-2.7,0.8-4.1,0.8c-1.4,0-2.8-0.3-4.1-0.8c-1.3-0.6-2.6-1.4-3.7-2.5c-1.1-1.1-2-2.4-2.5-3.8c-0.6-1.3-0.8-2.8-0.8-4.1
	c0-1.4,0.3-2.8,0.8-4c0.5-1.3,1.3-2.5,2.4-3.5c1.1-1.1,2.3-1.9,3.5-2.4c1.3-0.6,2.6-0.8,4-0.8c1.3,0,2.8,0.3,4.1,0.8
	C37.7,40.4,39,41.3,40.2,42.5z M36.4,46.3c-0.6-0.6-1.3-1.1-1.9-1.3c-0.7-0.3-1.4-0.4-2.1-0.5c-0.7,0-1.3,0.1-2,0.4
	c-0.7,0.3-1.3,0.7-1.8,1.2c-0.5,0.5-0.9,1.1-1.2,1.8c-0.3,0.7-0.4,1.3-0.3,2c0,0.7,0.2,1.4,0.5,2.1c0.3,0.7,0.8,1.3,1.3,1.9
	s1.2,1,1.9,1.3c0.7,0.3,1.3,0.4,2.1,0.5c0.7,0,1.3-0.1,2-0.3s1.3-0.7,1.8-1.2c0.5-0.5,0.9-1.1,1.2-1.8c0.3-0.7,0.4-1.3,0.4-2
	s-0.2-1.4-0.5-2.1C37.4,47.5,37,46.9,36.4,46.3z M53.3,44.6l-3.8,3.8l-15-15l0.9-0.9l2.7,0.2c0.1-1.2,0.3-2.3,0.8-3.4
	c0.5-1.1,1.1-2,2-2.9c0.9-0.9,1.9-1.6,3.1-2c1.2-0.4,2.4-0.7,3.5-0.7s2.4,0.3,3.5,0.7c1.2,0.5,2.2,1.2,3.1,2.1l8.5,8.5l-3.8,3.8
	l-8.4-8.5c-0.4-0.4-0.8-0.7-1.3-0.9c-0.5-0.2-1-0.3-1.5-0.3s-1,0.1-1.5,0.3c-0.5,0.2-0.9,0.5-1.3,0.8c-0.4,0.4-0.7,0.8-0.9,1.3
	c-0.2,0.5-0.3,1-0.3,1.5c0,0.5,0.1,1,0.3,1.5c0.2,0.5,0.5,0.9,0.9,1.3L53.3,44.6z M69.7,28.1l-3.8,3.8L54.8,20.7L53,22.6l-3.8-3.8
	l1.9-1.9l-0.7-0.7c-0.9-0.9-1.6-1.9-2.1-3.1c-0.4-1.2-0.7-2.4-0.7-3.5s0.3-2.4,0.7-3.5c0.4-1.2,1.2-2.2,2.1-3.1l2.9-2.9L57,3.9
	l-2.9,2.9c-0.4,0.4-0.8,0.8-0.9,1.3c-0.2,0.5-0.3,1-0.3,1.5c0,0.5,0.1,1,0.3,1.5c0.2,0.5,0.5,0.9,0.9,1.3l0.7,0.7l4.7-4.7l3.8,3.8
	l-4.7,4.7L69.7,28.1z"></path>
	<path id="taiwan" transform="translate(208.000000, 115.476850)" class="color-midnight" d="M30.7,92.5l-4,4l-16-16l-6,6l-4-4l16-16l4,4l-6,6
	L30.7,92.5z M50.5,72.7l-0.9,0.9L46.1,73c0,0.7-0.1,1.3-0.3,2.1c-0.1,0.7-0.3,1.3-0.5,2c-0.3,0.7-0.5,1.3-0.8,1.9s-0.8,1.1-1.3,1.6
	c-1,1-2.2,1.9-3.5,2.4c-1.3,0.6-2.6,0.8-4,0.9c-1.3,0-2.8-0.3-4.1-0.8c-1.3-0.6-2.7-1.5-4-2.7c-1.2-1.2-2-2.4-2.6-3.8
	c-0.6-1.3-0.8-2.8-0.8-4.1c0-1.4,0.3-2.8,0.8-4c0.5-1.3,1.3-2.5,2.4-3.5c0.5-0.5,1-0.9,1.6-1.3s1.3-0.7,1.9-0.8
	c0.7-0.3,1.3-0.4,2-0.5s1.3-0.2,2.1-0.2l-0.3-3.3l0.9-0.9L50.5,72.7z M39.1,68.9c-0.5-0.5-1.1-0.9-1.9-1.2c-0.7-0.3-1.4-0.4-2.1-0.5
	c-0.8,0-1.4,0.1-2.1,0.3c-0.7,0.3-1.3,0.6-1.9,1.1c-0.5,0.5-0.9,1.1-1.2,1.8c-0.3,0.7-0.4,1.3-0.4,2c0,0.7,0.2,1.3,0.5,2.1
	c0.3,0.7,0.8,1.3,1.4,2s1.3,1.1,2,1.4s1.4,0.5,2.1,0.5s1.3-0.2,2-0.4s1.2-0.7,1.8-1.2c0.5-0.5,0.9-1.1,1.1-1.9
	c0.3-0.7,0.3-1.4,0.3-2.1c0-0.8-0.2-1.4-0.5-2.1C40,70,39.6,69.4,39.1,68.9z M38.9,46.2c0.3,0.3,0.6,0.8,0.8,1.2
	c0.2,0.4,0.3,0.9,0.3,1.3s-0.1,0.9-0.3,1.3c-0.2,0.4-0.4,0.8-0.8,1.2s-0.8,0.6-1.2,0.8c-0.4,0.2-0.9,0.3-1.3,0.3
	c-0.4,0-0.9-0.1-1.3-0.3c-0.4-0.2-0.8-0.4-1.2-0.8s-0.6-0.8-0.8-1.2c-0.2-0.4-0.3-0.9-0.3-1.3s0.1-0.9,0.3-1.3
	c0.2-0.4,0.4-0.8,0.8-1.2s0.8-0.6,1.2-0.8c0.4-0.2,0.9-0.3,1.3-0.3c0.4,0,0.9,0.1,1.3,0.3C38.1,45.6,38.6,45.9,38.9,46.2z
	 M57.3,65.9l-3.9,3.9l-14.9-15l3.9-3.9L57.3,65.9z M73.6,38.7c0.8,0.8,1.3,1.7,1.8,2.7c0.4,1,0.6,2,0.6,3c0,1-0.2,2-0.6,3
	c-0.4,1-1,1.9-1.8,2.7c-0.7,0.7-1.5,1.3-2.4,1.7c-0.9,0.4-1.9,0.7-2.9,0.7c-0.1,1-0.3,1.9-0.7,2.9c-0.4,0.9-0.9,1.7-1.7,2.4
	c-0.8,0.8-1.7,1.3-2.7,1.8c-1,0.4-2,0.6-3,0.6c-1,0-2-0.2-3-0.6c-1-0.4-1.9-1-2.7-1.8L45,48.3l3.8-3.8l9.5,9.5
	c0.3,0.3,0.6,0.4,0.8,0.6c0.3,0.2,0.7,0.2,1,0.2s0.7-0.1,1-0.2c0.3-0.2,0.6-0.3,0.8-0.6s0.4-0.6,0.6-0.9c0.2-0.3,0.2-0.7,0.2-1
	c0-0.3-0.1-0.7-0.2-1c-0.2-0.3-0.3-0.6-0.6-0.8l-9.5-9.5l3.8-3.8l9.5,9.5c0.3,0.3,0.6,0.4,0.9,0.6c0.3,0.1,0.7,0.2,1,0.2
	c0.3,0,0.7-0.1,1-0.2c0.3-0.2,0.6-0.3,0.8-0.6c0.3-0.3,0.4-0.6,0.6-0.9s0.2-0.7,0.2-1s-0.1-0.7-0.2-1s-0.3-0.6-0.6-0.9L60,33
	l3.8-3.8L73.6,38.7z M96.3,26.9l-0.9,0.9l-3.5-0.6c0,0.7-0.1,1.3-0.3,2.1c-0.1,0.7-0.3,1.3-0.5,2c-0.3,0.7-0.5,1.3-0.8,1.9
	c-0.3,0.6-0.8,1.1-1.3,1.6c-1,1-2.2,1.9-3.5,2.4c-1.3,0.6-2.6,0.8-4,0.9c-1.3,0-2.8-0.3-4.1-0.8s-2.7-1.5-4-2.7
	c-1.2-1.2-2-2.4-2.6-3.8c-0.6-1.3-0.8-2.8-0.8-4.1c0-1.4,0.3-2.8,0.8-4c0.5-1.3,1.3-2.5,2.4-3.5c0.5-0.5,1-0.9,1.6-1.3
	c0.6-0.3,1.3-0.7,1.9-0.8c0.7-0.3,1.3-0.4,2-0.5s1.3-0.2,2.1-0.2l-0.3-3.3l0.9-0.9L96.3,26.9z M84.8,23.1c-0.5-0.5-1.1-0.9-1.9-1.2
	c-0.7-0.3-1.4-0.4-2.1-0.5c-0.8,0-1.4,0.1-2.1,0.3c-0.7,0.3-1.3,0.6-1.9,1.1c-0.5,0.5-0.9,1.1-1.2,1.8c-0.3,0.7-0.4,1.3-0.4,2
	c0,0.7,0.2,1.3,0.5,2.1c0.3,0.7,0.8,1.3,1.4,2c0.7,0.7,1.3,1.1,2,1.4s1.4,0.5,2.1,0.5s1.3-0.2,2-0.4s1.2-0.7,1.8-1.2
	c0.5-0.5,0.9-1.1,1.1-1.9c0.3-0.7,0.3-1.4,0.3-2.1c0-0.8-0.2-1.4-0.5-2.1C85.7,24.3,85.3,23.6,84.8,23.1z M102.3,20.8l-3.8,3.8
	L83.6,9.7l0.9-0.9l2.7,0.2c0.1-1.2,0.3-2.3,0.8-3.4c0.5-1.1,1.1-2,2-2.9c0.9-0.9,1.9-1.6,3.1-2S95.5,0,96.7,0s2.4,0.3,3.5,0.7
	c1.2,0.5,2.2,1.2,3.1,2.1l8.5,8.5l-3.8,3.8l-8.5-8.5c-0.4-0.4-0.8-0.7-1.3-0.9c-0.5-0.2-1-0.3-1.5-0.3s-1,0.1-1.5,0.3
	c-0.5,0.2-0.9,0.5-1.3,0.8c-0.4,0.4-0.7,0.8-0.9,1.3s-0.3,1-0.3,1.5s0.1,1,0.3,1.5c0.2,0.5,0.5,0.9,0.9,1.3L102.3,20.8z"></path>
	<linearGradient id="elixir_color" gradientUnits="userSpaceOnUse" x1="-37.9301" y1="341.8374" x2="-38.2442" y2="342.1462" gradientTransform="matrix(99.3684 0 0 -101.1476 4034.9363 34674.8945)">
		<stop offset="0" style="stop-color:#65308A"></stop>
		<stop offset="0.1991" style="stop-color:#68348C"></stop>
		<stop offset="0.4054" style="stop-color:#714194"></stop>
		<stop offset="0.615" style="stop-color:#7F55A0"></stop>
		<stop offset="0.8255" style="stop-color:#9472B1"></stop>
		<stop offset="1" style="stop-color:#A990C2"></stop>
	</linearGradient>
	<path id="elixir" class="elixir" d="M243.8,121l-18.4,18.4l-26.9-26.9l18.4-18.4l5.4,5.4l-13.1,13.1l5.4,5.4l8.8-8.9l5.4,5.4l-8.8,8.9
	l5.4,5.4l13.1-13.1L243.8,121z M252.1,112.6l-5.1,5.1l-28-28l5.1-5.1L252.1,112.6z M236.5,77.2c0.5,0.5,0.8,1,1.1,1.6
	s0.3,1.2,0.3,1.9c0,0.6-0.2,1.3-0.3,1.9c-0.3,0.6-0.6,1.1-1.1,1.6s-1,0.8-1.6,1.1c-0.6,0.3-1.2,0.3-1.9,0.3c-0.6,0-1.2-0.1-1.8-0.3
	c-0.6-0.3-1.1-0.6-1.6-1.1c-0.4-0.4-0.8-1-1-1.6c-0.3-0.6-0.3-1.2-0.3-1.9c0-0.6,0.1-1.2,0.3-1.9c0.3-0.6,0.6-1.1,1.1-1.6
	c0.5-0.5,1-0.8,1.6-1.1c0.6-0.3,1.2-0.3,1.9-0.3c0.6,0,1.3,0.1,1.9,0.3C235.5,76.4,236.1,76.7,236.5,77.2z M261.1,103.6l-5.1,5.1
	l-20-20.1l5.1-5.1L261.1,103.6z M262.2,47.6c3,0.2,4,1.3,4.6,2.5c1,1.9-0.1,4-1.6,5.1c-1.9,1.4-4.3,1.2-6.2-1.5
	c-1.5-2.1-2.5-6-2-8.4C258.5,46.9,260,47.5,262.2,47.6z M283.5,81.3l-6.2,6.2l-10.1-2.2l2.1,10.2l-6.2,6.2l-2.9-17.6l-17.2-2.5
	l6.2-6.2l9.8,1.7l-1.8-9.8l6.2-6.2l2.5,17.2L283.5,81.3z M290.4,74.3l-5.1,5.1l-20-20.1l5.1-5.1L290.4,74.3z M297.9,66.8l-5.1,5.1
	l-20-20.1l1.3-1.3l4,0.7c0.1-1.6,0.4-3.1,1.1-4.6c0.7-1.4,1.5-2.8,2.6-3.9l4.5-4.6l5.1,5.1l-4.5,4.6c-0.5,0.5-0.9,1.2-1.2,1.9
	c-0.3,0.7-0.4,1.3-0.4,2c0,0.7,0.2,1.3,0.4,2c0.3,0.7,0.7,1.3,1.2,1.9L297.9,66.8z"></path>
	<linearGradient id="ruby_color" gradientUnits="userSpaceOnUse" x1="-37.9834" y1="341.799" x2="-38.2943" y2="342.134" gradientTransform="matrix(114.7789 0 0 -106.6264 4437.3789 36605.3789)">
		<stop offset="0" style="stop-color:#CB1D23"></stop>
		<stop offset="0.194" style="stop-color:#CC2126"></stop>
		<stop offset="0.3949" style="stop-color:#D02E30"></stop>
		<stop offset="0.5991" style="stop-color:#D64240"></stop>
		<stop offset="0.8042" style="stop-color:#DE5F56"></stop>
		<stop offset="1" style="stop-color:#E88271"></stop>
	</linearGradient>
	<path id="ruby" class="ruby" d="M32.2,190.7l-5.4,5.4L0,169.3l10.8-10.8c1-1,2-1.8,3.2-2.4s2.4-1.2,3.6-1.4c1.3-0.3,2.5-0.5,3.9-0.5
	s2.6,0.2,3.9,0.5c1.3,0.3,2.4,0.8,3.6,1.5c1.2,0.7,2.3,1.5,3.2,2.4c0.9,0.9,1.7,1.9,2.4,3c0.7,1.1,1.2,2.3,1.5,3.5
	c0.3,1.2,0.6,2.4,0.6,3.8c0,1.3-0.1,2.5-0.3,3.8l10,4l-5.7,5.7l-7.7-3l-6,6.1L32.2,190.7z M10.8,169.3L21.6,180l5.4-5.4
	c0.8-0.8,1.3-1.6,1.7-2.5c0.3-0.9,0.6-1.9,0.6-2.9s-0.2-1.9-0.6-2.9c-0.3-0.9-0.9-1.8-1.7-2.5s-1.6-1.3-2.5-1.7
	c-0.9-0.3-1.9-0.6-2.9-0.6c-1,0-1.9,0.2-2.9,0.6c-0.9,0.3-1.8,0.9-2.5,1.7L10.8,169.3z M63.8,154.4c0,0.8-0.1,1.6-0.3,2.4
	c-0.2,0.8-0.3,1.6-0.6,2.4c-0.3,0.8-0.6,1.5-1,2.2c-0.4,0.7-0.8,1.3-1.4,1.9c-1.3,1.3-2.6,2.2-4.1,2.9c-1.5,0.7-3.1,1-4.7,1
	c-1.6,0-3.3-0.3-4.9-1s-3.1-1.8-4.5-3.2l-11.1-11.1l5.1-5.1l11.1,11.1c0.7,0.7,1.3,1.2,2.1,1.5c0.8,0.3,1.4,0.5,2.2,0.5
	c0.7,0,1.4-0.1,2-0.4c0.7-0.3,1.3-0.7,1.8-1.3c0.5-0.5,0.9-1.2,1.1-1.9c0.3-0.7,0.3-1.4,0.3-2.2c-0.1-0.8-0.3-1.5-0.5-2.2
	c-0.3-0.7-0.8-1.3-1.3-1.9l-11.1-11.1l5.1-5.1l20,20.1l-1.3,1.3L63.8,154.4z M108.1,130l-5.1-5.1l2.9-2.8c0.5-0.5,0.9-1.1,1.2-1.7
	c0.3-0.6,0.5-1.3,0.6-1.9c0.1-0.7,0.1-1.3,0-2c-0.1-0.7-0.3-1.3-0.6-2c-0.3,0.8-0.7,1.6-1,2.4c-0.3,0.8-0.8,1.5-1.4,2.1
	c-1.3,1.3-2.6,2.2-4.1,2.9s-3.1,1-4.7,1s-3.3-0.3-4.9-1s-3.1-1.8-4.5-3.2l-11.1-11.1l5.1-5.1l11.1,11.1c0.7,0.7,1.4,1.3,2.2,1.5
	c0.8,0.3,1.4,0.5,2.2,0.5c0.7,0,1.3-0.2,2-0.4c0.7-0.3,1.3-0.7,1.8-1.3c0.5-0.5,0.9-1.2,1.1-1.9c0.3-0.7,0.3-1.4,0.3-2.2
	c-0.1-0.8-0.3-1.5-0.5-2.2c-0.3-0.7-0.8-1.3-1.3-1.9L88,94.7l5.1-5.1l17.5,17.5c1.4,1.4,2.4,3,3.1,4.8c0.7,1.8,1,3.6,1,5.5
	s-0.3,3.7-1.1,5.5c-0.7,1.8-1.8,3.4-3.2,4.8L108.1,130z M77.5,116.5c-1.9-0.8-3.7-1.2-5.6-1.2s-3.7,0.3-5.5,1
	c-1.8,0.7-3.4,1.8-4.8,3.2c-0.4,0.4-0.9,1-1.3,1.6c-0.4,0.6-0.8,1.2-1,1.9c-0.3,0.6-0.5,1.3-0.6,1.9c-0.1,0.7-0.2,1.3-0.1,1.9
	l-9.3-9.4l-5.1,5.1l17.9,17.9c1.5,1.5,3.2,2.7,5.1,3.5c1.9,0.8,3.7,1.1,5.6,1.2c1.9,0,3.7-0.3,5.5-1.1c1.8-0.8,3.4-1.8,4.8-3.2
	c1.4-1.4,2.5-3,3.2-4.8c0.8-1.8,1.1-3.5,1.1-5.4s-0.4-3.7-1.2-5.6c-0.8-1.9-1.9-3.5-3.5-5.1C81,118.4,79.3,117.2,77.5,116.5z
	 M77.7,135.5l-12-0.4l-0.4-5.9l6.1-6.1l5.9,0.4L77.7,135.5z"></path>
	<g id="logo" transform="translate(92.631579, 0.000000)">
		<linearGradient id="shape_frame_color" gradientUnits="userSpaceOnUse" x1="-130.8228" y1="341.7445" x2="-130.8228" y2="342.7445" gradientTransform="matrix(126.3158 0 0 -223.0726 16588.3984 76457.7109)">
			<stop offset="0" style="stop-color:#3B4A69"></stop>
			<stop offset="1" style="stop-color:#606B85"></stop>
		</linearGradient>
		<path id="shape_frame" class="logo_frame" d="M63.4,223.9c-1.4,0-2.9-0.5-4-1.6L1.9,164.6c-1.1-1.1-1.6-2.4-1.6-4s0.6-2.9,1.6-4l44.3-44.3
		L1.9,68c-1.1-1.1-1.6-2.4-1.6-4c0-1.5,0.6-2.9,1.6-4L59.5,2.4c2.2-2.2,5.7-2.2,7.9,0L125,60.1c1.1,1,1.6,2.4,1.6,4
		c0,1.5-0.6,2.9-1.6,4l-44.3,44.3l44.3,44.3c1.1,1,1.6,2.4,1.6,4s-0.6,2.9-1.6,4l-57.6,57.7C66.3,223.4,64.8,223.9,63.4,223.9z
		 M9.3,160.7l54.2,54.3l54.2-54.3l-44.5-44.3c-1.1-1.1-1.6-2.4-1.6-4s0.6-2.9,1.6-4l44.4-44.3L63.4,9.8L9.3,64.1l44.3,44.3
		c2.2,2.2,2.2,5.7,0,7.9L9.3,160.7z"></path>
		<linearGradient id="shape_ruby_color" gradientUnits="userSpaceOnUse" x1="-130.6089" y1="340.9146" x2="-130.6089" y2="341.9146" gradientTransform="matrix(74.6105 0 0 -52.5125 9808.291 18002.7363)">
			<stop offset="0" style="stop-color:#CB1D23"></stop>
			<stop offset="0.194" style="stop-color:#CC2126"></stop>
			<stop offset="0.3949" style="stop-color:#D02E30"></stop>
			<stop offset="0.5991" style="stop-color:#D64240"></stop>
			<stop offset="0.8042" style="stop-color:#DE5F56"></stop>
			<stop offset="1" style="stop-color:#E88271"></stop>
		</linearGradient>
		<path id="shape_ruby" class="logo_ruby" d="M85.6,48H41.3L26.2,63.1l37.3,37.3l37.3-37.3L85.6,48z M85.6,68.6l-1.8-5l-4.6-2l4.6-2l1.8-5
		l1.8,5l4.5,2l-4.5,2L85.6,68.6z"></path>
		<linearGradient id="shape_elixir_color" gradientUnits="userSpaceOnUse" x1="-130.2771" y1="341.2971" x2="-130.2771" y2="342.2959" gradientTransform="matrix(45.6421 0 0 -81.0867 6009.5322 27878.3672)">
			<stop offset="0" style="stop-color:#65308A"></stop>
			<stop offset="0.1991" style="stop-color:#68348C"></stop>
			<stop offset="0.4054" style="stop-color:#714194"></stop>
			<stop offset="0.615" style="stop-color:#7F55A0"></stop>
			<stop offset="0.8255" style="stop-color:#9472B1"></stop>
			<stop offset="1" style="stop-color:#A990C2"></stop>
		</linearGradient>
		<path id="shape_elixir" class="logo_elixir" d="M64.8,122.6c-0.3,7.8,2.1,12.7,6.9,18c6.9,7.7,6.5,12.7,5.1,17.1c-2.4,7-9.8,9.2-15.8,8.3
		c-7.9-1.1-13.1-7.5-11.3-18.4C51,139.2,57.9,127.6,64.8,122.6z M71.2,181.9c-6.9-0.6-9.6-7-17.9-7.1c-9.5-0.1-12.8,6-12.8,6
		l22.9,22.9L86.2,181C81.5,177.6,77.3,182.4,71.2,181.9z"></path>
	</g>
</svg>